<svg width="20" height="20" viewBox="0 0 20 20" fill="none" xmlns="http://www.w3.org/2000/svg">
<path d="M19.7845 19.7905V19.7895H19.7896V12.5319C19.7896 8.98167 19.0254 6.24622 14.8742 6.24622C12.8788 6.24622 11.54 7.34133 10.9932 8.37923H10.9355V6.57758H6.99976V19.7895H11.0978V13.2477C11.0978 11.5254 11.4245 9.85982 13.5575 9.85982C15.6596 9.85982 15.6905 11.8254 15.6905 13.3585V19.7905H19.7845Z" fill="white"/>
<path d="M4.42966 6.57715H0.326477V19.7891H4.42966V6.57715Z" fill="white"/>
<path d="M2.37626 0C1.0647 0 0 1.0647 0 2.37626C0 3.68782 1.0647 4.77468 2.37626 4.77468C3.68781 4.77468 4.75252 3.68782 4.75252 2.37626C4.752 1.0647 3.6873 0 2.37626 0Z" fill="white"/>
</svg>
